<mxfile host="app.diagrams.net" modified="2022-03-04T18:19:34.707Z" agent="5.0 (Windows NT 10.0; Win64; x64) AppleWebKit/537.36 (KHTML, like Gecko) Chrome/99.0.4844.51 Safari/537.36" etag="NZLtXyW_xL_ykJb7KV4M" version="16.6.5" type="github">
  <diagram id="EnBOoTVtRgOYuRtcWvN6" name="Page-1">
    <mxGraphModel dx="1422" dy="798" grid="1" gridSize="10" guides="1" tooltips="1" connect="1" arrows="1" fold="1" page="1" pageScale="1" pageWidth="827" pageHeight="1169" math="0" shadow="0">
      <root>
        <mxCell id="0" />
        <mxCell id="1" parent="0" />
        <mxCell id="4dTVqedtr_EQGEj85bMY-32" value="" style="rounded=1;whiteSpace=wrap;html=1;" vertex="1" parent="1">
          <mxGeometry x="20" y="410" width="90" height="190" as="geometry" />
        </mxCell>
        <mxCell id="4dTVqedtr_EQGEj85bMY-25" value="" style="rounded=1;whiteSpace=wrap;html=1;" vertex="1" parent="1">
          <mxGeometry x="160" y="446.75" width="125" height="116.5" as="geometry" />
        </mxCell>
        <mxCell id="4dTVqedtr_EQGEj85bMY-21" value="" style="rounded=1;whiteSpace=wrap;html=1;" vertex="1" parent="1">
          <mxGeometry x="330" y="200" width="300" height="670" as="geometry" />
        </mxCell>
        <mxCell id="4dTVqedtr_EQGEj85bMY-20" value="" style="rounded=1;whiteSpace=wrap;html=1;" vertex="1" parent="1">
          <mxGeometry x="680" y="290" width="125" height="360" as="geometry" />
        </mxCell>
        <mxCell id="4dTVqedtr_EQGEj85bMY-1" value="Gateway Service" style="outlineConnect=0;dashed=0;verticalLabelPosition=bottom;verticalAlign=top;align=center;html=1;shape=mxgraph.aws3.api_gateway;fillColor=#FF9933;gradientColor=none;" vertex="1" parent="1">
          <mxGeometry x="197.5" y="469.75" width="50" height="53" as="geometry" />
        </mxCell>
        <mxCell id="4dTVqedtr_EQGEj85bMY-4" value="Config Server" style="sketch=0;pointerEvents=1;shadow=0;dashed=0;html=1;strokeColor=#000000;labelPosition=center;verticalLabelPosition=bottom;verticalAlign=top;align=center;fillColor=#66CC00;shape=mxgraph.mscae.oms.config_assessment" vertex="1" parent="1">
          <mxGeometry x="720" y="306.5" width="50" height="45" as="geometry" />
        </mxCell>
        <mxCell id="4dTVqedtr_EQGEj85bMY-5" value="Config Repository" style="outlineConnect=0;dashed=0;verticalLabelPosition=bottom;verticalAlign=top;align=center;html=1;shape=mxgraph.aws3.ecr_registry;fillColor=#66CC00;gradientColor=none;" vertex="1" parent="1">
          <mxGeometry x="713" y="420" width="57" height="60" as="geometry" />
        </mxCell>
        <mxCell id="4dTVqedtr_EQGEj85bMY-9" value="Git Repo" style="verticalLabelPosition=bottom;html=1;verticalAlign=top;align=center;strokeColor=#FF4529;fillColor=#FF4529;shape=mxgraph.azure.git_repository;" vertex="1" parent="1">
          <mxGeometry x="717.5" y="160" width="50" height="50" as="geometry" />
        </mxCell>
        <mxCell id="4dTVqedtr_EQGEj85bMY-10" value="Eureka Service" style="aspect=fixed;html=1;points=[];align=center;image;fontSize=12;image=img/lib/azure2/compute/Azure_Spring_Cloud.svg;strokeColor=#FF4529;fillColor=#FF4529;gradientColor=#66FF66;" vertex="1" parent="1">
          <mxGeometry x="707.5" y="554" width="68" height="64" as="geometry" />
        </mxCell>
        <mxCell id="4dTVqedtr_EQGEj85bMY-11" value="Account Service" style="sketch=0;points=[[0,0,0],[0.25,0,0],[0.5,0,0],[0.75,0,0],[1,0,0],[0,1,0],[0.25,1,0],[0.5,1,0],[0.75,1,0],[1,1,0],[0,0.25,0],[0,0.5,0],[0,0.75,0],[1,0.25,0],[1,0.5,0],[1,0.75,0]];outlineConnect=0;fontColor=#232F3E;gradientColor=#945DF2;gradientDirection=north;fillColor=#5A30B5;strokeColor=#ffffff;dashed=0;verticalLabelPosition=bottom;verticalAlign=top;align=center;html=1;fontSize=12;fontStyle=0;aspect=fixed;shape=mxgraph.aws4.resourceIcon;resIcon=mxgraph.aws4.app_mesh;" vertex="1" parent="1">
          <mxGeometry x="370" y="354" width="78" height="78" as="geometry" />
        </mxCell>
        <mxCell id="4dTVqedtr_EQGEj85bMY-12" value="Transaction Service" style="sketch=0;points=[[0,0,0],[0.25,0,0],[0.5,0,0],[0.75,0,0],[1,0,0],[0,1,0],[0.25,1,0],[0.5,1,0],[0.75,1,0],[1,1,0],[0,0.25,0],[0,0.5,0],[0,0.75,0],[1,0.25,0],[1,0.5,0],[1,0.75,0]];outlineConnect=0;fontColor=#232F3E;gradientColor=#945DF2;gradientDirection=north;fillColor=#5A30B5;strokeColor=#ffffff;dashed=0;verticalLabelPosition=bottom;verticalAlign=top;align=center;html=1;fontSize=12;fontStyle=0;aspect=fixed;shape=mxgraph.aws4.resourceIcon;resIcon=mxgraph.aws4.app_mesh;" vertex="1" parent="1">
          <mxGeometry x="510" y="354" width="78" height="78" as="geometry" />
        </mxCell>
        <mxCell id="4dTVqedtr_EQGEj85bMY-13" value="Product Service" style="sketch=0;points=[[0,0,0],[0.25,0,0],[0.5,0,0],[0.75,0,0],[1,0,0],[0,1,0],[0.25,1,0],[0.5,1,0],[0.75,1,0],[1,1,0],[0,0.25,0],[0,0.5,0],[0,0.75,0],[1,0.25,0],[1,0.5,0],[1,0.75,0]];outlineConnect=0;fontColor=#232F3E;gradientColor=#945DF2;gradientDirection=north;fillColor=#5A30B5;strokeColor=#ffffff;dashed=0;verticalLabelPosition=bottom;verticalAlign=top;align=center;html=1;fontSize=12;fontStyle=0;aspect=fixed;shape=mxgraph.aws4.resourceIcon;resIcon=mxgraph.aws4.app_mesh;" vertex="1" parent="1">
          <mxGeometry x="510" y="220" width="78" height="78" as="geometry" />
        </mxCell>
        <mxCell id="4dTVqedtr_EQGEj85bMY-14" value="Customer Service" style="sketch=0;points=[[0,0,0],[0.25,0,0],[0.5,0,0],[0.75,0,0],[1,0,0],[0,1,0],[0.25,1,0],[0.5,1,0],[0.75,1,0],[1,1,0],[0,0.25,0],[0,0.5,0],[0,0.75,0],[1,0.25,0],[1,0.5,0],[1,0.75,0]];outlineConnect=0;fontColor=#232F3E;gradientColor=#945DF2;gradientDirection=north;fillColor=#5A30B5;strokeColor=#ffffff;dashed=0;verticalLabelPosition=bottom;verticalAlign=top;align=center;html=1;fontSize=12;fontStyle=0;aspect=fixed;shape=mxgraph.aws4.resourceIcon;resIcon=mxgraph.aws4.app_mesh;" vertex="1" parent="1">
          <mxGeometry x="370" y="220" width="78" height="78" as="geometry" />
        </mxCell>
        <mxCell id="4dTVqedtr_EQGEj85bMY-15" value="Card Service" style="sketch=0;points=[[0,0,0],[0.25,0,0],[0.5,0,0],[0.75,0,0],[1,0,0],[0,1,0],[0.25,1,0],[0.5,1,0],[0.75,1,0],[1,1,0],[0,0.25,0],[0,0.5,0],[0,0.75,0],[1,0.25,0],[1,0.5,0],[1,0.75,0]];outlineConnect=0;fontColor=#232F3E;gradientColor=#945DF2;gradientDirection=north;fillColor=#5A30B5;strokeColor=#ffffff;dashed=0;verticalLabelPosition=bottom;verticalAlign=top;align=center;html=1;fontSize=12;fontStyle=0;aspect=fixed;shape=mxgraph.aws4.resourceIcon;resIcon=mxgraph.aws4.app_mesh;" vertex="1" parent="1">
          <mxGeometry x="370" y="490" width="78" height="78" as="geometry" />
        </mxCell>
        <mxCell id="4dTVqedtr_EQGEj85bMY-16" value="Operation Service" style="sketch=0;points=[[0,0,0],[0.25,0,0],[0.5,0,0],[0.75,0,0],[1,0,0],[0,1,0],[0.25,1,0],[0.5,1,0],[0.75,1,0],[1,1,0],[0,0.25,0],[0,0.5,0],[0,0.75,0],[1,0.25,0],[1,0.5,0],[1,0.75,0]];outlineConnect=0;fontColor=#232F3E;gradientColor=#945DF2;gradientDirection=north;fillColor=#5A30B5;strokeColor=#ffffff;dashed=0;verticalLabelPosition=bottom;verticalAlign=top;align=center;html=1;fontSize=12;fontStyle=0;aspect=fixed;shape=mxgraph.aws4.resourceIcon;resIcon=mxgraph.aws4.app_mesh;" vertex="1" parent="1">
          <mxGeometry x="370" y="620" width="78" height="78" as="geometry" />
        </mxCell>
        <mxCell id="4dTVqedtr_EQGEj85bMY-17" value="Yanki Service" style="sketch=0;points=[[0,0,0],[0.25,0,0],[0.5,0,0],[0.75,0,0],[1,0,0],[0,1,0],[0.25,1,0],[0.5,1,0],[0.75,1,0],[1,1,0],[0,0.25,0],[0,0.5,0],[0,0.75,0],[1,0.25,0],[1,0.5,0],[1,0.75,0]];outlineConnect=0;fontColor=#232F3E;gradientColor=#945DF2;gradientDirection=north;fillColor=#5A30B5;strokeColor=#ffffff;dashed=0;verticalLabelPosition=bottom;verticalAlign=top;align=center;html=1;fontSize=12;fontStyle=0;aspect=fixed;shape=mxgraph.aws4.resourceIcon;resIcon=mxgraph.aws4.app_mesh;" vertex="1" parent="1">
          <mxGeometry x="510" y="490" width="78" height="78" as="geometry" />
        </mxCell>
        <mxCell id="4dTVqedtr_EQGEj85bMY-18" value="Request Service" style="sketch=0;points=[[0,0,0],[0.25,0,0],[0.5,0,0],[0.75,0,0],[1,0,0],[0,1,0],[0.25,1,0],[0.5,1,0],[0.75,1,0],[1,1,0],[0,0.25,0],[0,0.5,0],[0,0.75,0],[1,0.25,0],[1,0.5,0],[1,0.75,0]];outlineConnect=0;fontColor=#232F3E;gradientColor=#945DF2;gradientDirection=north;fillColor=#5A30B5;strokeColor=#ffffff;dashed=0;verticalLabelPosition=bottom;verticalAlign=top;align=center;html=1;fontSize=12;fontStyle=0;aspect=fixed;shape=mxgraph.aws4.resourceIcon;resIcon=mxgraph.aws4.app_mesh;" vertex="1" parent="1">
          <mxGeometry x="370" y="750" width="78" height="78" as="geometry" />
        </mxCell>
        <mxCell id="4dTVqedtr_EQGEj85bMY-19" value="Mongo Atlas" style="sketch=0;points=[[0,0,0],[0.25,0,0],[0.5,0,0],[0.75,0,0],[1,0,0],[0,1,0],[0.25,1,0],[0.5,1,0],[0.75,1,0],[1,1,0],[0,0.25,0],[0,0.5,0],[0,0.75,0],[1,0.25,0],[1,0.5,0],[1,0.75,0]];outlineConnect=0;gradientDirection=north;dashed=0;verticalLabelPosition=bottom;verticalAlign=top;align=center;html=1;fontSize=12;fontStyle=0;aspect=fixed;shape=mxgraph.aws4.resourceIcon;resIcon=mxgraph.aws4.documentdb_with_mongodb_compatibility;fillColor=#66CC00;" vertex="1" parent="1">
          <mxGeometry x="445" y="80" width="70" height="70" as="geometry" />
        </mxCell>
        <mxCell id="4dTVqedtr_EQGEj85bMY-22" value="Bootcoin Service" style="sketch=0;points=[[0,0,0],[0.25,0,0],[0.5,0,0],[0.75,0,0],[1,0,0],[0,1,0],[0.25,1,0],[0.5,1,0],[0.75,1,0],[1,1,0],[0,0.25,0],[0,0.5,0],[0,0.75,0],[1,0.25,0],[1,0.5,0],[1,0.75,0]];outlineConnect=0;fontColor=#232F3E;gradientColor=#945DF2;gradientDirection=north;fillColor=#5A30B5;strokeColor=#ffffff;dashed=0;verticalLabelPosition=bottom;verticalAlign=top;align=center;html=1;fontSize=12;fontStyle=0;aspect=fixed;shape=mxgraph.aws4.resourceIcon;resIcon=mxgraph.aws4.app_mesh;" vertex="1" parent="1">
          <mxGeometry x="510" y="620" width="78" height="78" as="geometry" />
        </mxCell>
        <mxCell id="4dTVqedtr_EQGEj85bMY-29" value="" style="points=[[0.03,0.03,0],[0.5,0,0],[0.97,0.03,0],[1,0.4,0],[0.97,0.745,0],[0.5,1,0],[0.03,0.745,0],[0,0.4,0]];verticalLabelPosition=bottom;sketch=0;html=1;verticalAlign=top;aspect=fixed;align=center;pointerEvents=1;shape=mxgraph.cisco19.workstation;fillColor=#005073;strokeColor=none;labelBackgroundColor=#ffffff;" vertex="1" parent="1">
          <mxGeometry x="40" y="550" width="50" height="40" as="geometry" />
        </mxCell>
        <mxCell id="4dTVqedtr_EQGEj85bMY-30" value="" style="points=[[0.13,0.02,0],[0.5,0,0],[0.87,0.02,0],[0.885,0.4,0],[0.985,0.985,0],[0.5,1,0],[0.015,0.985,0],[0.115,0.4,0]];verticalLabelPosition=bottom;sketch=0;html=1;verticalAlign=top;aspect=fixed;align=center;pointerEvents=1;shape=mxgraph.cisco19.laptop;fillColor=#005073;strokeColor=none;labelBackgroundColor=#ffffff;" vertex="1" parent="1">
          <mxGeometry x="40" y="490" width="50" height="35" as="geometry" />
        </mxCell>
        <mxCell id="4dTVqedtr_EQGEj85bMY-31" value="" style="sketch=0;points=[[0.015,0.015,0],[0.985,0.015,0],[0.985,0.985,0],[0.015,0.985,0],[0.25,0,0],[0.5,0,0],[0.75,0,0],[1,0.25,0],[1,0.5,0],[1,0.75,0],[0.75,1,0],[0.5,1,0],[0.25,1,0],[0,0.75,0],[0,0.5,0],[0,0.25,0]];verticalLabelPosition=bottom;html=1;verticalAlign=top;aspect=fixed;align=center;pointerEvents=1;shape=mxgraph.cisco19.handheld;fillColor=#005073;strokeColor=none;labelBackgroundColor=#ffffff;" vertex="1" parent="1">
          <mxGeometry x="46.25" y="420" width="37.5" height="50" as="geometry" />
        </mxCell>
        <mxCell id="4dTVqedtr_EQGEj85bMY-33" value="Client" style="rounded=0;whiteSpace=wrap;html=1;labelBackgroundColor=#ffffff;strokeColor=#FFFFFF;" vertex="1" parent="1">
          <mxGeometry x="20" y="608" width="90" height="10" as="geometry" />
        </mxCell>
        <mxCell id="4dTVqedtr_EQGEj85bMY-36" value="" style="endArrow=none;html=1;rounded=0;exitX=1;exitY=0.5;exitDx=0;exitDy=0;" edge="1" parent="1" source="4dTVqedtr_EQGEj85bMY-25">
          <mxGeometry width="50" height="50" relative="1" as="geometry">
            <mxPoint x="640.9000000000001" y="480.68000000000006" as="sourcePoint" />
            <mxPoint x="330" y="505" as="targetPoint" />
          </mxGeometry>
        </mxCell>
        <mxCell id="4dTVqedtr_EQGEj85bMY-37" value="" style="endArrow=none;html=1;rounded=0;entryX=0;entryY=0.5;entryDx=0;entryDy=0;" edge="1" parent="1" target="4dTVqedtr_EQGEj85bMY-25">
          <mxGeometry width="50" height="50" relative="1" as="geometry">
            <mxPoint x="110" y="505" as="sourcePoint" />
            <mxPoint x="155" y="504.5" as="targetPoint" />
          </mxGeometry>
        </mxCell>
        <mxCell id="4dTVqedtr_EQGEj85bMY-39" value="" style="endArrow=none;html=1;rounded=0;exitX=1;exitY=0.5;exitDx=0;exitDy=0;entryX=-0.016;entryY=0.594;entryDx=0;entryDy=0;entryPerimeter=0;" edge="1" parent="1" target="4dTVqedtr_EQGEj85bMY-20">
          <mxGeometry width="50" height="50" relative="1" as="geometry">
            <mxPoint x="630" y="504.5" as="sourcePoint" />
            <mxPoint x="675" y="504.5" as="targetPoint" />
          </mxGeometry>
        </mxCell>
        <mxCell id="4dTVqedtr_EQGEj85bMY-40" value="" style="endArrow=none;html=1;rounded=0;entryX=0.5;entryY=0;entryDx=0;entryDy=0;" edge="1" parent="1" target="4dTVqedtr_EQGEj85bMY-21">
          <mxGeometry width="50" height="50" relative="1" as="geometry">
            <mxPoint x="480" y="180" as="sourcePoint" />
            <mxPoint x="502.5" y="184.5" as="targetPoint" />
          </mxGeometry>
        </mxCell>
        <mxCell id="4dTVqedtr_EQGEj85bMY-41" value="" style="endArrow=none;html=1;rounded=0;exitX=0.5;exitY=1;exitDx=0;exitDy=0;exitPerimeter=0;entryX=0.5;entryY=0;entryDx=0;entryDy=0;" edge="1" parent="1">
          <mxGeometry width="50" height="50" relative="1" as="geometry">
            <mxPoint x="744.5" y="240" as="sourcePoint" />
            <mxPoint x="744.5" y="290" as="targetPoint" />
          </mxGeometry>
        </mxCell>
      </root>
    </mxGraphModel>
  </diagram>
</mxfile>
